<svg xmlns="http://www.w3.org/2000/svg" viewBox="0 0 400 520" preserveAspectRatio="xMidYMid meet">
  <defs>
    <radialGradient id="bgHayun" cx="50%" cy="35%" r="80%">
      <stop offset="0%" stop-color="#4a5a4a"/>
      <stop offset="55%" stop-color="#2a3a3a"/>
      <stop offset="100%" stop-color="#101a1a"/>
    </radialGradient>
    <radialGradient id="skinHayun" cx="50%" cy="35%" r="65%">
      <stop offset="0%" stop-color="#fae4c8"/>
      <stop offset="70%" stop-color="#ecceac"/>
      <stop offset="100%" stop-color="#c89878"/>
    </radialGradient>
    <linearGradient id="hairHayun" x1="0" y1="0" x2="0" y2="1">
      <stop offset="0%" stop-color="#4a2a18"/>
      <stop offset="50%" stop-color="#3a1f10"/>
      <stop offset="100%" stop-color="#1a0e05"/>
    </linearGradient>
    <linearGradient id="hairHiH" x1="0" y1="0" x2="0" y2="1">
      <stop offset="0%" stop-color="#8a5a28" stop-opacity="0.8"/>
      <stop offset="100%" stop-color="#4a2a18" stop-opacity="0"/>
    </linearGradient>
    <linearGradient id="uniformHayun" x1="0" y1="0" x2="0" y2="1">
      <stop offset="0%" stop-color="#2a3a5a"/>
      <stop offset="100%" stop-color="#0a1a3a"/>
    </linearGradient>
    <radialGradient id="capHayun" cx="50%" cy="40%" r="60%">
      <stop offset="0%" stop-color="#2a3050"/>
      <stop offset="100%" stop-color="#0a1530"/>
    </radialGradient>
    <radialGradient id="goldBadgeH" cx="40%" cy="35%" r="60%">
      <stop offset="0%" stop-color="#ffe080"/>
      <stop offset="60%" stop-color="#d4a000"/>
      <stop offset="100%" stop-color="#7a5000"/>
    </radialGradient>
    <linearGradient id="headsetGrad" x1="0" y1="0" x2="0" y2="1">
      <stop offset="0%" stop-color="#3a3a3a"/>
      <stop offset="100%" stop-color="#0a0a0a"/>
    </linearGradient>
  </defs>

  <!-- BG: police office interior -->
  <rect width="400" height="520" fill="url(#bgHayun)"/>
  <!-- Wall texture -->
  <rect x="0" y="0" width="400" height="520" fill="#3a4a4a" opacity="0.3"/>
  <!-- CITY POLICE sign at top -->
  <rect x="40" y="20" width="320" height="40" fill="#d8d8d0" stroke="#5a5a52" stroke-width="2"/>
  <rect x="40" y="20" width="320" height="40" fill="none" stroke="#7a7a72" stroke-width="0.8"/>
  <text x="200" y="48" text-anchor="middle" font-family="Inter, sans-serif" font-size="22" font-weight="900" fill="#1a1a18" letter-spacing="3">CITY POLICE</text>
  <!-- Monitors in background -->
  <rect x="20" y="240" width="100" height="80" fill="#1a2a3a" rx="3" opacity="0.7"/>
  <rect x="25" y="245" width="90" height="65" fill="#3a5a7a" opacity="0.6"/>
  <rect x="30" y="252" width="60" height="3" fill="#7acdf5" opacity="0.8"/>
  <rect x="30" y="260" width="80" height="2" fill="#5a8aaf" opacity="0.7"/>
  <rect x="30" y="268" width="50" height="2" fill="#5a8aaf" opacity="0.7"/>
  <rect x="280" y="240" width="100" height="80" fill="#1a2a3a" rx="3" opacity="0.7"/>
  <rect x="285" y="245" width="90" height="65" fill="#3a5a7a" opacity="0.6"/>
  <rect x="290" y="252" width="60" height="3" fill="#7acdf5" opacity="0.8"/>
  <rect x="290" y="260" width="80" height="2" fill="#5a8aaf" opacity="0.7"/>

  <!-- Uniform shoulders -->
  <path d="M 30 520 L 30 410 Q 60 380, 110 365 Q 200 350, 290 365 Q 340 380, 370 410 L 370 520 Z" fill="url(#uniformHayun)"/>
  <!-- Shoulder POLICE patches -->
  <ellipse cx="65" cy="430" rx="22" ry="26" fill="#0a1a35"/>
  <ellipse cx="65" cy="430" rx="20" ry="24" fill="none" stroke="#d4a000" stroke-width="1.2"/>
  <text x="65" y="430" text-anchor="middle" font-family="Inter, sans-serif" font-size="7" font-weight="700" fill="#d4a000">POLICE</text>
  <path d="M 55 442 L 65 448 L 75 442" stroke="#d4a000" stroke-width="1" fill="none"/>
  <ellipse cx="335" cy="430" rx="22" ry="26" fill="#0a1a35"/>
  <ellipse cx="335" cy="430" rx="20" ry="24" fill="none" stroke="#d4a000" stroke-width="1.2"/>
  <text x="335" y="430" text-anchor="middle" font-family="Inter, sans-serif" font-size="7" font-weight="700" fill="#d4a000">POLICE</text>
  <path d="M 325 442 L 335 448 L 345 442" stroke="#d4a000" stroke-width="1" fill="none"/>
  <!-- Epaulettes -->
  <rect x="105" y="365" width="40" height="14" fill="#1a2a4a" rx="2"/>
  <text x="125" y="377" text-anchor="middle" font-size="11" fill="#d4a000">★★</text>
  <rect x="255" y="365" width="40" height="14" fill="#1a2a4a" rx="2"/>
  <text x="275" y="377" text-anchor="middle" font-size="11" fill="#d4a000">★★</text>
  <!-- White collar shirt -->
  <path d="M 155 385 L 200 440 L 245 385 L 245 400 L 200 410 L 155 400 Z" fill="#f0f0f0" stroke="#a0a0a0" stroke-width="0.5"/>
  <!-- Navy tie -->
  <path d="M 192 410 L 188 520 L 212 520 L 208 410 Z" fill="#0d1b3a"/>
  <path d="M 192 410 L 200 430 L 208 410 Z" fill="#1a2a4a"/>
  <!-- Chest badge (gold star) -->
  <ellipse cx="270" cy="475" rx="22" ry="28" fill="url(#goldBadgeH)" stroke="#5a3a00" stroke-width="1.5"/>
  <text x="270" y="468" text-anchor="middle" font-size="9" font-weight="800" fill="#5a3a00">POLICE</text>
  <text x="270" y="488" text-anchor="middle" font-size="14" font-weight="900" fill="#5a3a00">★</text>
  <!-- Gold buttons row -->
  <circle cx="200" cy="455" r="3.5" fill="url(#goldBadgeH)" stroke="#5a3a00" stroke-width="0.5"/>
  <circle cx="200" cy="475" r="3.5" fill="url(#goldBadgeH)" stroke="#5a3a00" stroke-width="0.5"/>
  <circle cx="200" cy="495" r="3.5" fill="url(#goldBadgeH)" stroke="#5a3a00" stroke-width="0.5"/>

  <!-- LEFT BRAID (viewer's left, character's right) -->
  <!-- Green hair tie top -->
  <rect x="98" y="160" width="22" height="8" fill="#5aa050" stroke="#2a5a20" stroke-width="0.8" rx="2"/>
  <!-- Braid segments -->
  <g>
    <ellipse cx="109" cy="195" rx="22" ry="20" fill="url(#hairHayun)"/>
    <path d="M 95 195 Q 109 188, 123 195" stroke="#2a1808" stroke-width="1.5" fill="none" opacity="0.7"/>
    <ellipse cx="109" cy="230" rx="22" ry="20" fill="url(#hairHayun)"/>
    <path d="M 95 230 Q 109 223, 123 230" stroke="#2a1808" stroke-width="1.5" fill="none" opacity="0.7"/>
    <ellipse cx="109" cy="265" rx="21" ry="20" fill="url(#hairHayun)"/>
    <path d="M 95 265 Q 109 258, 123 265" stroke="#2a1808" stroke-width="1.5" fill="none" opacity="0.7"/>
    <ellipse cx="109" cy="300" rx="20" ry="20" fill="url(#hairHayun)"/>
    <path d="M 95 300 Q 109 293, 123 300" stroke="#2a1808" stroke-width="1.5" fill="none" opacity="0.7"/>
    <ellipse cx="109" cy="335" rx="19" ry="19" fill="url(#hairHayun)"/>
    <path d="M 95 335 Q 109 328, 123 335" stroke="#2a1808" stroke-width="1.5" fill="none" opacity="0.7"/>
    <ellipse cx="109" cy="370" rx="17" ry="18" fill="url(#hairHayun)"/>
    <ellipse cx="109" cy="402" rx="14" ry="16" fill="url(#hairHayun)"/>
  </g>
  <!-- Highlights on left braid -->
  <path d="M 100 180 Q 102 280, 100 410" stroke="#7a5028" stroke-width="2" fill="none" opacity="0.5"/>
  <!-- Green hair tie bottom -->
  <rect x="98" y="416" width="22" height="8" fill="#5aa050" stroke="#2a5a20" stroke-width="0.8" rx="2"/>
  <!-- Braid wisp -->
  <path d="M 105 426 L 100 440 M 109 426 L 109 442 M 113 426 L 118 440" stroke="#3a1f10" stroke-width="1.5" stroke-linecap="round"/>

  <!-- RIGHT BRAID (viewer's right, character's left) -->
  <rect x="280" y="160" width="22" height="8" fill="#5aa050" stroke="#2a5a20" stroke-width="0.8" rx="2"/>
  <g>
    <ellipse cx="291" cy="195" rx="22" ry="20" fill="url(#hairHayun)"/>
    <path d="M 277 195 Q 291 188, 305 195" stroke="#2a1808" stroke-width="1.5" fill="none" opacity="0.7"/>
    <ellipse cx="291" cy="230" rx="22" ry="20" fill="url(#hairHayun)"/>
    <path d="M 277 230 Q 291 223, 305 230" stroke="#2a1808" stroke-width="1.5" fill="none" opacity="0.7"/>
    <ellipse cx="291" cy="265" rx="21" ry="20" fill="url(#hairHayun)"/>
    <path d="M 277 265 Q 291 258, 305 265" stroke="#2a1808" stroke-width="1.5" fill="none" opacity="0.7"/>
    <ellipse cx="291" cy="300" rx="20" ry="20" fill="url(#hairHayun)"/>
    <path d="M 277 300 Q 291 293, 305 300" stroke="#2a1808" stroke-width="1.5" fill="none" opacity="0.7"/>
    <ellipse cx="291" cy="335" rx="19" ry="19" fill="url(#hairHayun)"/>
    <path d="M 277 335 Q 291 328, 305 335" stroke="#2a1808" stroke-width="1.5" fill="none" opacity="0.7"/>
    <ellipse cx="291" cy="370" rx="17" ry="18" fill="url(#hairHayun)"/>
    <ellipse cx="291" cy="402" rx="14" ry="16" fill="url(#hairHayun)"/>
  </g>
  <path d="M 300 180 Q 298 280, 300 410" stroke="#7a5028" stroke-width="2" fill="none" opacity="0.5"/>
  <rect x="280" y="416" width="22" height="8" fill="#5aa050" stroke="#2a5a20" stroke-width="0.8" rx="2"/>
  <path d="M 287 426 L 282 440 M 291 426 L 291 442 M 295 426 L 300 440" stroke="#3a1f10" stroke-width="1.5" stroke-linecap="round"/>

  <!-- NECK -->
  <path d="M 175 320 L 175 365 Q 200 380, 225 365 L 225 320 Z" fill="url(#skinHayun)"/>
  <ellipse cx="200" cy="330" rx="22" ry="6" fill="#c08868" opacity="0.4"/>

  <!-- FACE -->
  <ellipse cx="200" cy="240" rx="78" ry="98" fill="url(#skinHayun)"/>
  <path d="M 130 245 Q 140 290, 165 320 Q 145 310, 130 285 Z" fill="#d8a880" opacity="0.4"/>
  <path d="M 270 245 Q 260 290, 235 320 Q 255 310, 270 285 Z" fill="#d8a880" opacity="0.35"/>
  <path d="M 165 318 Q 200 332, 235 318" stroke="#f5d8b5" stroke-width="1.5" fill="none" opacity="0.6"/>

  <!-- HAIR top + bangs -->
  <!-- Back of head dark -->
  <path d="M 120 195 Q 100 100, 200 75 Q 300 100, 280 195 L 290 230 Q 270 130, 200 110 Q 130 130, 110 230 Z" fill="url(#hairHayun)"/>
  <!-- Top hair volume -->
  <path d="M 125 175 Q 145 95, 200 78 Q 255 95, 275 175 L 275 200 Q 200 130, 125 200 Z" fill="url(#hairHayun)"/>
  <!-- Side wisps connecting to braids -->
  <path d="M 122 195 Q 105 180, 100 175 L 115 165 Q 125 180, 130 195 Z" fill="url(#hairHayun)"/>
  <path d="M 278 195 Q 295 180, 300 175 L 285 165 Q 275 180, 270 195 Z" fill="url(#hairHayun)"/>
  <!-- BANGS (full center bangs with feathered tips) -->
  <path d="M 132 175 Q 165 170, 200 175 Q 245 170, 275 178 Q 260 205, 200 205 Q 145 205, 132 195 Z" fill="url(#hairHayun)"/>
  <!-- Bang strands texture -->
  <path d="M 150 178 L 152 205" stroke="#2a1808" stroke-width="1.2" fill="none" opacity="0.7"/>
  <path d="M 165 175 L 165 203" stroke="#2a1808" stroke-width="1.2" fill="none" opacity="0.7"/>
  <path d="M 180 174 L 180 202" stroke="#2a1808" stroke-width="1.2" fill="none" opacity="0.7"/>
  <path d="M 200 174 L 200 202" stroke="#2a1808" stroke-width="1.2" fill="none" opacity="0.7"/>
  <path d="M 220 175 L 220 202" stroke="#2a1808" stroke-width="1.2" fill="none" opacity="0.7"/>
  <path d="M 235 176 L 235 203" stroke="#2a1808" stroke-width="1.2" fill="none" opacity="0.7"/>
  <path d="M 250 178 L 250 205" stroke="#2a1808" stroke-width="1.2" fill="none" opacity="0.7"/>
  <!-- Hair highlights -->
  <ellipse cx="175" cy="125" rx="35" ry="22" fill="url(#hairHiH)"/>
  <ellipse cx="230" cy="135" rx="28" ry="18" fill="url(#hairHiH)" opacity="0.7"/>

  <!-- EYEBROWS (dark, defined arches) -->
  <path d="M 155 217 Q 170 209, 188 217 L 188 222 Q 170 215, 155 222 Z" fill="#2a1808"/>
  <path d="M 212 217 Q 230 209, 245 217 L 245 222 Q 230 215, 212 222 Z" fill="#2a1808"/>

  <!-- EYES (BRIGHT BLUE, large, anime-style with extreme lashes) -->
  <!-- Eye whites -->
  <ellipse cx="170" cy="246" rx="14" ry="11" fill="#fff8f0"/>
  <ellipse cx="230" cy="246" rx="14" ry="11" fill="#fff8f0"/>
  <!-- Iris BLUE -->
  <circle cx="170" cy="246" r="10" fill="#3a82d4"/>
  <circle cx="230" cy="246" r="10" fill="#3a82d4"/>
  <!-- Iris gradient inner ring -->
  <circle cx="170" cy="246" r="10" fill="none" stroke="#1a4a8a" stroke-width="1.2"/>
  <circle cx="230" cy="246" r="10" fill="none" stroke="#1a4a8a" stroke-width="1.2"/>
  <!-- Iris radial streaks -->
  <path d="M 170 240 L 170 252 M 164 246 L 176 246" stroke="#5aa2f4" stroke-width="0.6" opacity="0.6"/>
  <path d="M 230 240 L 230 252 M 224 246 L 236 246" stroke="#5aa2f4" stroke-width="0.6" opacity="0.6"/>
  <!-- Pupils -->
  <circle cx="170" cy="246" r="4.5" fill="#0a0e1a"/>
  <circle cx="230" cy="246" r="4.5" fill="#0a0e1a"/>
  <!-- Bright eye highlights (big and small) -->
  <ellipse cx="166" cy="241" rx="3.5" ry="2.8" fill="#fff"/>
  <ellipse cx="226" cy="241" rx="3.5" ry="2.8" fill="#fff"/>
  <circle cx="174" cy="250" r="1.5" fill="#fff" opacity="0.8"/>
  <circle cx="234" cy="250" r="1.5" fill="#fff" opacity="0.8"/>
  <!-- Upper lash line (very thick) -->
  <path d="M 154 238 Q 170 230, 186 238" stroke="#1a0a00" stroke-width="2.8" fill="none" stroke-linecap="round"/>
  <path d="M 214 238 Q 230 230, 246 238" stroke="#1a0a00" stroke-width="2.8" fill="none" stroke-linecap="round"/>
  <!-- Individual lashes (longer & more) -->
  <line x1="158" y1="237" x2="155" y2="231" stroke="#1a0a00" stroke-width="1.2"/>
  <line x1="164" y1="234" x2="162" y2="227" stroke="#1a0a00" stroke-width="1.2"/>
  <line x1="170" y1="232" x2="170" y2="225" stroke="#1a0a00" stroke-width="1.2"/>
  <line x1="176" y1="234" x2="178" y2="227" stroke="#1a0a00" stroke-width="1.2"/>
  <line x1="182" y1="237" x2="185" y2="231" stroke="#1a0a00" stroke-width="1.2"/>
  <line x1="218" y1="237" x2="215" y2="231" stroke="#1a0a00" stroke-width="1.2"/>
  <line x1="224" y1="234" x2="222" y2="227" stroke="#1a0a00" stroke-width="1.2"/>
  <line x1="230" y1="232" x2="230" y2="225" stroke="#1a0a00" stroke-width="1.2"/>
  <line x1="236" y1="234" x2="238" y2="227" stroke="#1a0a00" stroke-width="1.2"/>
  <line x1="242" y1="237" x2="245" y2="231" stroke="#1a0a00" stroke-width="1.2"/>
  <!-- Lower lash line -->
  <path d="M 158 254 Q 170 258, 182 254" stroke="#2a1808" stroke-width="0.8" fill="none"/>
  <path d="M 218 254 Q 230 258, 242 254" stroke="#2a1808" stroke-width="0.8" fill="none"/>

  <!-- CHEEKS (rosy with freckles) -->
  <ellipse cx="150" cy="275" rx="20" ry="11" fill="#ff9080" opacity="0.42"/>
  <ellipse cx="250" cy="275" rx="20" ry="11" fill="#ff9080" opacity="0.42"/>
  <!-- Freckles -->
  <circle cx="158" cy="270" r="0.9" fill="#a06040" opacity="0.8"/>
  <circle cx="163" cy="278" r="0.9" fill="#a06040" opacity="0.8"/>
  <circle cx="167" cy="273" r="0.8" fill="#a06040" opacity="0.7"/>
  <circle cx="155" cy="282" r="0.8" fill="#a06040" opacity="0.7"/>
  <circle cx="172" cy="280" r="0.7" fill="#a06040" opacity="0.6"/>
  <circle cx="244" cy="270" r="0.9" fill="#a06040" opacity="0.8"/>
  <circle cx="239" cy="278" r="0.9" fill="#a06040" opacity="0.8"/>
  <circle cx="234" cy="273" r="0.8" fill="#a06040" opacity="0.7"/>
  <circle cx="246" cy="282" r="0.8" fill="#a06040" opacity="0.7"/>
  <circle cx="230" cy="280" r="0.7" fill="#a06040" opacity="0.6"/>

  <!-- NOSE -->
  <path d="M 200 252 Q 196 282, 195 292 Q 200 297, 205 292 Q 204 282, 200 252" fill="none" stroke="#c89878" stroke-width="1.2"/>
  <ellipse cx="196" cy="292" rx="2.5" ry="1.5" fill="#a07050" opacity="0.5"/>
  <ellipse cx="204" cy="292" rx="2.5" ry="1.5" fill="#a07050" opacity="0.5"/>
  <ellipse cx="200" cy="290" rx="6" ry="2" fill="#f5d8b5" opacity="0.6"/>

  <!-- MOUTH (slight smile, peach lips) -->
  <path d="M 178 310 Q 188 306, 200 308 Q 212 306, 222 310 Q 215 314, 200 313 Q 185 314, 178 310 Z" fill="#d97560"/>
  <path d="M 180 313 Q 200 324, 220 313 Q 215 320, 200 322 Q 185 320, 180 313 Z" fill="#c46050"/>
  <ellipse cx="200" cy="316" rx="8" ry="1.5" fill="#ffb8a0" opacity="0.7"/>
  <!-- Subtle smile corners -->
  <path d="M 178 312 Q 182 316, 188 314" stroke="#8a3020" stroke-width="0.8" fill="none"/>
  <path d="M 222 312 Q 218 316, 212 314" stroke="#8a3020" stroke-width="0.8" fill="none"/>

  <!-- HEADSET (over right ear, mic on right side) -->
  <!-- Earpiece -->
  <ellipse cx="280" cy="252" rx="14" ry="18" fill="url(#headsetGrad)" stroke="#1a1a1a" stroke-width="1"/>
  <ellipse cx="280" cy="252" rx="9" ry="13" fill="#1a1a1a"/>
  <ellipse cx="280" cy="252" rx="6" ry="9" fill="#3a3a3a"/>
  <circle cx="280" cy="252" r="3" fill="#0a0a0a"/>
  <!-- Headset band (over top of cap) -->
  <path d="M 280 234 Q 270 175, 200 165 Q 130 175, 120 234" fill="none" stroke="#1a1a1a" stroke-width="3.5" stroke-linecap="round"/>
  <path d="M 280 234 Q 270 178, 200 168" fill="none" stroke="#3a3a3a" stroke-width="1" opacity="0.8"/>
  <!-- Mic boom arm -->
  <path d="M 278 268 Q 260 290, 240 305 Q 235 308, 232 312" stroke="#1a1a1a" stroke-width="3" fill="none" stroke-linecap="round"/>
  <path d="M 278 268 Q 260 290, 240 305" stroke="#5a5a5a" stroke-width="0.8" fill="none" opacity="0.8"/>
  <!-- Mic head (foam ball) -->
  <ellipse cx="228" cy="318" rx="7" ry="6" fill="#2a2a2a"/>
  <ellipse cx="228" cy="318" rx="6" ry="5" fill="#1a1a1a"/>
  <circle cx="227" cy="316" r="0.6" fill="#5a5a5a" opacity="0.7"/>
  <circle cx="230" cy="317" r="0.6" fill="#5a5a5a" opacity="0.7"/>
  <circle cx="228" cy="320" r="0.6" fill="#5a5a5a" opacity="0.7"/>
  <!-- Tiny LED on headset -->
  <circle cx="280" cy="240" r="1.5" fill="#5af55a"/>
  <circle cx="280" cy="240" r="3" fill="#5af55a" opacity="0.4"/>

  <!-- POLICE CAP -->
  <ellipse cx="200" cy="140" rx="115" ry="22" fill="#0a1530"/>
  <path d="M 90 140 Q 90 50, 200 40 Q 310 50, 310 140 Z" fill="url(#capHayun)"/>
  <ellipse cx="200" cy="55" rx="105" ry="20" fill="#1a2540" opacity="0.7"/>
  <rect x="88" y="135" width="224" height="14" fill="#000510"/>
  <path d="M 88 148 Q 100 162, 200 168 Q 300 162, 312 148 Q 200 152, 88 148 Z" fill="#000510"/>
  <ellipse cx="200" cy="162" rx="105" ry="6" fill="#0a0a1a"/>
  <path d="M 110 154 Q 200 158, 290 154" stroke="#2a3a5a" stroke-width="1" fill="none" opacity="0.7"/>
  <rect x="92" y="132" width="216" height="3" fill="#d4a000"/>
  <!-- Cap badge -->
  <ellipse cx="200" cy="95" rx="32" ry="38" fill="url(#goldBadgeH)" stroke="#5a3a00" stroke-width="1.5"/>
  <text x="200" y="92" text-anchor="middle" font-family="Inter, sans-serif" font-size="9" font-weight="800" fill="#5a3a00">POLICE</text>
  <text x="200" y="115" text-anchor="middle" font-size="22" font-weight="900" fill="#5a3a00">★</text>
  <text x="200" y="125" text-anchor="middle" font-family="Inter, sans-serif" font-size="5" font-weight="700" fill="#5a3a00">DEPT</text>
  <ellipse cx="190" cy="85" rx="10" ry="5" fill="#ffe8a8" opacity="0.7"/>
  <circle cx="110" cy="140" r="3" fill="#d4a000" stroke="#5a3a00" stroke-width="0.5"/>
  <circle cx="290" cy="140" r="3" fill="#d4a000" stroke="#5a3a00" stroke-width="0.5"/>
</svg>
