<svg xmlns="http://www.w3.org/2000/svg" viewBox="0 0 400 520" preserveAspectRatio="xMidYMid meet">
  <defs>
    <!-- Background: warm interior with window -->
    <radialGradient id="bg" cx="50%" cy="38%" r="75%">
      <stop offset="0%" stop-color="#544a3e"/>
      <stop offset="55%" stop-color="#2d2520"/>
      <stop offset="100%" stop-color="#15110d"/>
    </radialGradient>
    <linearGradient id="curtainL" x1="0" y1="0" x2="1" y2="0">
      <stop offset="0%" stop-color="#2a2018"/>
      <stop offset="50%" stop-color="#7a5e3a"/>
      <stop offset="100%" stop-color="#9a7e5a"/>
    </linearGradient>
    <linearGradient id="curtainR" x1="0" y1="0" x2="1" y2="0">
      <stop offset="0%" stop-color="#9a7e5a"/>
      <stop offset="50%" stop-color="#7a5e3a"/>
      <stop offset="100%" stop-color="#2a2018"/>
    </linearGradient>
    <radialGradient id="window" cx="50%" cy="35%" r="70%">
      <stop offset="0%" stop-color="#fff8e0"/>
      <stop offset="55%" stop-color="#e0d0a8"/>
      <stop offset="100%" stop-color="#6a5840"/>
    </radialGradient>
    <!-- Skin: warm peach -->
    <radialGradient id="skin" cx="50%" cy="35%" r="60%">
      <stop offset="0%" stop-color="#fbe6cb"/>
      <stop offset="65%" stop-color="#ebcfa9"/>
      <stop offset="100%" stop-color="#b8896a"/>
    </radialGradient>
    <!-- Hair: warm chestnut brown -->
    <linearGradient id="hair" x1="0" y1="0" x2="0" y2="1">
      <stop offset="0%" stop-color="#5d3a1c"/>
      <stop offset="40%" stop-color="#4a2d15"/>
      <stop offset="100%" stop-color="#23130a"/>
    </linearGradient>
    <radialGradient id="hairShine" cx="50%" cy="20%" r="50%">
      <stop offset="0%" stop-color="#a06a3a" stop-opacity="0.85"/>
      <stop offset="100%" stop-color="#5d3a1c" stop-opacity="0"/>
    </radialGradient>
    <linearGradient id="uniform" x1="0" y1="0" x2="0" y2="1">
      <stop offset="0%" stop-color="#2c3e60"/>
      <stop offset="100%" stop-color="#0c1a3a"/>
    </linearGradient>
    <radialGradient id="cap" cx="50%" cy="40%" r="60%">
      <stop offset="0%" stop-color="#2a3450"/>
      <stop offset="100%" stop-color="#0a1530"/>
    </radialGradient>
    <radialGradient id="gold" cx="40%" cy="35%" r="60%">
      <stop offset="0%" stop-color="#ffe890"/>
      <stop offset="55%" stop-color="#daa520"/>
      <stop offset="100%" stop-color="#7a5500"/>
    </radialGradient>
    <!-- Eye gradient: warm brown with depth -->
    <radialGradient id="iris" cx="50%" cy="40%" r="55%">
      <stop offset="0%" stop-color="#9a6228"/>
      <stop offset="60%" stop-color="#5d3712"/>
      <stop offset="100%" stop-color="#2a1808"/>
    </radialGradient>
    <!-- Lips: peach-coral -->
    <linearGradient id="lipUpper" x1="0" y1="0" x2="0" y2="1">
      <stop offset="0%" stop-color="#d97560"/>
      <stop offset="100%" stop-color="#b85a48"/>
    </linearGradient>
    <linearGradient id="lipLower" x1="0" y1="0" x2="0" y2="1">
      <stop offset="0%" stop-color="#e08070"/>
      <stop offset="100%" stop-color="#a04838"/>
    </linearGradient>
  </defs>

  <!-- Background -->
  <rect width="400" height="520" fill="url(#bg)"/>
  <!-- Arched window glow -->
  <ellipse cx="200" cy="170" rx="155" ry="175" fill="url(#window)" opacity="0.78"/>
  <path d="M 95 220 Q 95 75, 200 75 Q 305 75, 305 220 L 305 360 L 95 360 Z" fill="none" stroke="#3a2818" stroke-width="2" opacity="0.55"/>
  <line x1="200" y1="75" x2="200" y2="360" stroke="#3a2818" stroke-width="1.5" opacity="0.45"/>
  <line x1="95" y1="220" x2="305" y2="220" stroke="#3a2818" stroke-width="1.5" opacity="0.45"/>
  <!-- Curtains -->
  <path d="M 0 0 L 0 520 L 85 520 Q 115 380, 100 200 Q 92 80, 72 0 Z" fill="url(#curtainL)"/>
  <path d="M 400 0 L 400 520 L 315 520 Q 285 380, 300 200 Q 308 80, 328 0 Z" fill="url(#curtainR)"/>
  <path d="M 25 30 Q 22 250, 35 510" stroke="#2a1a0a" stroke-width="1.8" fill="none" opacity="0.65"/>
  <path d="M 55 50 Q 52 260, 65 510" stroke="#2a1a0a" stroke-width="1.5" fill="none" opacity="0.5"/>
  <path d="M 345 50 Q 348 260, 335 510" stroke="#2a1a0a" stroke-width="1.5" fill="none" opacity="0.5"/>
  <path d="M 375 30 Q 378 250, 365 510" stroke="#2a1a0a" stroke-width="1.8" fill="none" opacity="0.65"/>

  <!-- ===== Uniform (jacket + accessories) ===== -->
  <path d="M 22 520 L 22 405 Q 55 375, 110 360 Q 200 345, 290 360 Q 345 375, 378 405 L 378 520 Z" fill="url(#uniform)"/>
  <!-- Subtle lapel highlight -->
  <path d="M 80 410 Q 110 380, 180 372 L 200 440 L 220 372 Q 290 380, 320 410" fill="none" stroke="#3a4d70" stroke-width="0.8" opacity="0.6"/>
  <!-- Epaulettes with stars -->
  <rect x="100" y="358" width="44" height="16" fill="#1a2a4a" rx="2" stroke="#3a4d70" stroke-width="0.5"/>
  <text x="122" y="372" text-anchor="middle" font-size="13" fill="#fff5b8">★★</text>
  <rect x="256" y="358" width="44" height="16" fill="#1a2a4a" rx="2" stroke="#3a4d70" stroke-width="0.5"/>
  <text x="278" y="372" text-anchor="middle" font-size="13" fill="#fff5b8">★★</text>
  <!-- Shoulder POLICE patches -->
  <ellipse cx="60" cy="430" rx="24" ry="28" fill="#0a1730" stroke="#1a2540" stroke-width="0.6"/>
  <ellipse cx="60" cy="430" rx="21" ry="25" fill="none" stroke="#daa520" stroke-width="1.5"/>
  <text x="60" y="429" text-anchor="middle" font-family="Arial, sans-serif" font-size="7" font-weight="800" fill="#daa520">POLICE</text>
  <path d="M 48 440 L 60 450 L 72 440" stroke="#daa520" stroke-width="1.2" fill="none"/>
  <ellipse cx="340" cy="430" rx="24" ry="28" fill="#0a1730" stroke="#1a2540" stroke-width="0.6"/>
  <ellipse cx="340" cy="430" rx="21" ry="25" fill="none" stroke="#daa520" stroke-width="1.5"/>
  <text x="340" y="429" text-anchor="middle" font-family="Arial, sans-serif" font-size="7" font-weight="800" fill="#daa520">POLICE</text>
  <path d="M 328 440 L 340 450 L 352 440" stroke="#daa520" stroke-width="1.2" fill="none"/>
  <!-- White collar shirt under jacket -->
  <path d="M 152 380 L 200 440 L 248 380 L 248 396 L 200 408 L 152 396 Z" fill="#f5f5f0" stroke="#a8a8a0" stroke-width="0.5"/>
  <!-- Navy tie -->
  <path d="M 190 408 L 186 520 L 214 520 L 210 408 Z" fill="#0d1830"/>
  <path d="M 190 408 L 200 430 L 210 408 Z" fill="#1a2540"/>
  <!-- Tie shading -->
  <line x1="200" y1="430" x2="200" y2="520" stroke="#0a1525" stroke-width="0.6" opacity="0.7"/>
  <!-- Chest POLICE badge -->
  <ellipse cx="272" cy="478" rx="24" ry="30" fill="url(#gold)" stroke="#5a3a00" stroke-width="1.8"/>
  <ellipse cx="272" cy="478" rx="20" ry="26" fill="none" stroke="#7a5a10" stroke-width="0.8"/>
  <text x="272" y="470" text-anchor="middle" font-family="Arial, sans-serif" font-size="8" font-weight="900" fill="#3a2810">POLICE</text>
  <text x="272" y="488" text-anchor="middle" font-size="15" font-weight="900" fill="#3a2810">★</text>
  <text x="272" y="500" text-anchor="middle" font-family="Arial, sans-serif" font-size="4" font-weight="700" fill="#3a2810">DEPARTMENT</text>
  <ellipse cx="265" cy="468" rx="6" ry="3" fill="#fff5c0" opacity="0.7"/>
  <!-- Gold buttons -->
  <circle cx="200" cy="450" r="4" fill="url(#gold)" stroke="#5a3a00" stroke-width="0.6"/>
  <circle cx="200" cy="468" r="4" fill="url(#gold)" stroke="#5a3a00" stroke-width="0.6"/>
  <circle cx="200" cy="486" r="4" fill="url(#gold)" stroke="#5a3a00" stroke-width="0.6"/>
  <circle cx="200" cy="504" r="4" fill="url(#gold)" stroke="#5a3a00" stroke-width="0.6"/>
  <!-- Button highlights -->
  <ellipse cx="198" cy="448" rx="1.5" ry="1" fill="#fff5c0" opacity="0.8"/>
  <ellipse cx="198" cy="466" rx="1.5" ry="1" fill="#fff5c0" opacity="0.8"/>
  <ellipse cx="198" cy="484" rx="1.5" ry="1" fill="#fff5c0" opacity="0.8"/>
  <ellipse cx="198" cy="502" rx="1.5" ry="1" fill="#fff5c0" opacity="0.8"/>
  <!-- Pocket -->
  <rect x="140" y="445" width="40" height="6" fill="none" stroke="#1a2540" stroke-width="0.8" opacity="0.6"/>

  <!-- ===== BACK HAIR flowing past shoulders ===== -->
  <path d="M 110 195 Q 80 290, 65 410 L 92 460 L 108 280 L 118 195 Z" fill="url(#hair)"/>
  <path d="M 290 195 Q 320 290, 335 410 L 308 460 L 292 280 L 282 195 Z" fill="url(#hair)"/>
  <!-- Hair flow texture (strands) -->
  <path d="M 88 240 Q 78 350, 75 440" stroke="#6a4528" stroke-width="1.2" fill="none" opacity="0.55"/>
  <path d="M 100 270 Q 90 370, 88 450" stroke="#6a4528" stroke-width="1" fill="none" opacity="0.5"/>
  <path d="M 312 240 Q 322 350, 325 440" stroke="#6a4528" stroke-width="1.2" fill="none" opacity="0.55"/>
  <path d="M 300 270 Q 310 370, 312 450" stroke="#6a4528" stroke-width="1" fill="none" opacity="0.5"/>

  <!-- ===== NECK ===== -->
  <path d="M 173 315 L 173 365 Q 200 380, 227 365 L 227 315 Z" fill="url(#skin)"/>
  <ellipse cx="200" cy="328" rx="24" ry="6" fill="#b88865" opacity="0.4"/>
  <path d="M 175 360 Q 200 372, 225 360" stroke="#c89878" stroke-width="0.8" fill="none" opacity="0.7"/>

  <!-- ===== FACE oval (refined proportions) ===== -->
  <ellipse cx="200" cy="238" rx="76" ry="98" fill="url(#skin)"/>
  <!-- Face contour shading (cheekbones) -->
  <path d="M 130 240 Q 138 295, 162 322 Q 145 310, 130 282 Z" fill="#cea076" opacity="0.4"/>
  <path d="M 270 240 Q 262 295, 238 322 Q 255 310, 270 282 Z" fill="#cea076" opacity="0.4"/>
  <!-- Forehead highlight -->
  <ellipse cx="200" cy="195" rx="40" ry="14" fill="#fdebd0" opacity="0.5"/>
  <!-- Chin highlight -->
  <ellipse cx="200" cy="320" rx="22" ry="6" fill="#fdebd0" opacity="0.4"/>

  <!-- ===== TOP HAIR (long, side-swept bangs) ===== -->
  <!-- Hair volume on crown -->
  <path d="M 116 198 Q 95 95, 200 70 Q 305 95, 284 198 L 290 230 Q 275 130, 200 105 Q 125 130, 110 230 Z" fill="url(#hair)"/>
  <!-- Side hair LEFT (over ear) -->
  <path d="M 120 195 Q 108 250, 116 322 L 148 332 Q 141 250, 142 200 Z" fill="url(#hair)"/>
  <!-- Side hair RIGHT (over ear, slightly tucked behind ear) -->
  <path d="M 280 195 Q 292 250, 284 322 L 252 332 Q 259 250, 258 200 Z" fill="url(#hair)"/>
  <!-- BANGS — side-swept from right to left -->
  <path d="M 124 178 Q 175 158, 230 165 Q 268 168, 282 195 Q 240 200, 195 198 Q 145 196, 124 198 Z" fill="url(#hair)"/>
  <!-- Bang strand details (sweeping motion) -->
  <path d="M 140 170 Q 200 195, 275 173 Q 250 198, 200 205 Q 160 200, 140 196" fill="#3a2010"/>
  <path d="M 145 178 Q 195 198, 265 180" stroke="#22130a" stroke-width="1.5" fill="none" opacity="0.85"/>
  <path d="M 150 184 Q 195 200, 260 186" stroke="#22130a" stroke-width="1.2" fill="none" opacity="0.7"/>
  <!-- Hair highlights (sheen on top) -->
  <ellipse cx="170" cy="125" rx="38" ry="22" fill="url(#hairShine)"/>
  <ellipse cx="230" cy="135" rx="32" ry="18" fill="url(#hairShine)" opacity="0.7"/>

  <!-- ===== RED HAIR CLIP (right side, character's left) ===== -->
  <rect x="253" y="158" width="20" height="10" fill="#c01818" rx="2" stroke="#6a0606" stroke-width="0.8"/>
  <ellipse cx="270" cy="163" rx="6" ry="5" fill="#c01818" stroke="#6a0606" stroke-width="0.6"/>
  <ellipse cx="258" cy="160" rx="6" ry="2" fill="#ff5050" opacity="0.7"/>
  <!-- Clip shadow on hair -->
  <ellipse cx="263" cy="170" rx="14" ry="3" fill="#1a0808" opacity="0.4"/>

  <!-- ===== EYEBROWS (full, gently arched, warm brown matching hair) ===== -->
  <path d="M 152 217 Q 168 208, 190 217 Q 188 220, 168 213 Q 154 220, 152 217 Z" fill="#3a2010"/>
  <path d="M 210 217 Q 232 208, 248 217 Q 246 220, 232 213 Q 212 220, 210 217 Z" fill="#3a2010"/>
  <!-- Brow hair texture -->
  <path d="M 156 216 L 158 214 M 162 215 L 164 213 M 168 213 L 170 211 M 175 213 L 177 211 M 182 215 L 184 213 M 187 217 L 189 215" stroke="#22130a" stroke-width="0.7"/>
  <path d="M 213 217 L 215 215 M 218 215 L 220 213 M 224 213 L 226 211 M 230 213 L 232 211 M 236 215 L 238 213 M 242 215 L 244 213" stroke="#22130a" stroke-width="0.7"/>

  <!-- ===== EYES (warm brown, large, expressive) ===== -->
  <!-- Eye whites -->
  <ellipse cx="170" cy="246" rx="14" ry="10" fill="#fffaf2"/>
  <ellipse cx="230" cy="246" rx="14" ry="10" fill="#fffaf2"/>
  <!-- Subtle inner corner shadow -->
  <path d="M 158 247 Q 162 252, 168 252" stroke="#d0a888" stroke-width="0.8" fill="none" opacity="0.7"/>
  <path d="M 232 252 Q 238 252, 242 247" stroke="#d0a888" stroke-width="0.8" fill="none" opacity="0.7"/>
  <!-- Iris (warm brown) -->
  <circle cx="170" cy="246" r="9" fill="url(#iris)"/>
  <circle cx="230" cy="246" r="9" fill="url(#iris)"/>
  <!-- Iris detail lines (radial) -->
  <g opacity="0.55">
    <line x1="170" y1="238" x2="170" y2="254" stroke="#8a5520" stroke-width="0.4"/>
    <line x1="162" y1="246" x2="178" y2="246" stroke="#8a5520" stroke-width="0.4"/>
    <line x1="164" y1="240" x2="176" y2="252" stroke="#8a5520" stroke-width="0.3"/>
    <line x1="176" y1="240" x2="164" y2="252" stroke="#8a5520" stroke-width="0.3"/>
    <line x1="230" y1="238" x2="230" y2="254" stroke="#8a5520" stroke-width="0.4"/>
    <line x1="222" y1="246" x2="238" y2="246" stroke="#8a5520" stroke-width="0.4"/>
    <line x1="224" y1="240" x2="236" y2="252" stroke="#8a5520" stroke-width="0.3"/>
    <line x1="236" y1="240" x2="224" y2="252" stroke="#8a5520" stroke-width="0.3"/>
  </g>
  <!-- Pupil -->
  <circle cx="170" cy="246" r="4.2" fill="#0e0805"/>
  <circle cx="230" cy="246" r="4.2" fill="#0e0805"/>
  <!-- Bright catchlights -->
  <ellipse cx="166" cy="242" rx="3.2" ry="2.5" fill="#fff"/>
  <ellipse cx="226" cy="242" rx="3.2" ry="2.5" fill="#fff"/>
  <circle cx="174" cy="250" r="1.3" fill="#fff" opacity="0.85"/>
  <circle cx="234" cy="250" r="1.3" fill="#fff" opacity="0.85"/>
  <!-- Upper lash line (thick, slight wing) -->
  <path d="M 155 240 Q 170 232, 184 239 L 188 237 Q 170 230, 152 240 Z" fill="#1a0a00"/>
  <path d="M 215 239 Q 230 232, 244 240 L 247 237 Q 230 230, 212 240 Z" fill="#1a0a00"/>
  <!-- Individual upper lashes (longer, curling) -->
  <g stroke="#1a0a00" stroke-width="1.1" stroke-linecap="round">
    <line x1="157" y1="238" x2="153" y2="232"/>
    <line x1="163" y1="235" x2="161" y2="228"/>
    <line x1="170" y1="234" x2="169" y2="226"/>
    <line x1="177" y1="235" x2="179" y2="228"/>
    <line x1="183" y1="238" x2="187" y2="232"/>
    <line x1="217" y1="238" x2="213" y2="232"/>
    <line x1="223" y1="235" x2="221" y2="228"/>
    <line x1="230" y1="234" x2="231" y2="226"/>
    <line x1="237" y1="235" x2="239" y2="228"/>
    <line x1="243" y1="238" x2="247" y2="232"/>
  </g>
  <!-- Lower lash line (thin) -->
  <path d="M 158 252 Q 170 256, 182 252" stroke="#22130a" stroke-width="0.6" fill="none"/>
  <path d="M 218 252 Q 230 256, 242 252" stroke="#22130a" stroke-width="0.6" fill="none"/>
  <!-- Lower lashes (subtle) -->
  <g stroke="#22130a" stroke-width="0.6" stroke-linecap="round" opacity="0.8">
    <line x1="164" y1="254" x2="164" y2="257"/>
    <line x1="170" y1="255" x2="170" y2="258"/>
    <line x1="176" y1="254" x2="176" y2="257"/>
    <line x1="224" y1="254" x2="224" y2="257"/>
    <line x1="230" y1="255" x2="230" y2="258"/>
    <line x1="236" y1="254" x2="236" y2="257"/>
  </g>

  <!-- ===== CHEEKS (soft peach blush + freckles) ===== -->
  <ellipse cx="150" cy="278" rx="20" ry="11" fill="#ff8870" opacity="0.32"/>
  <ellipse cx="250" cy="278" rx="20" ry="11" fill="#ff8870" opacity="0.32"/>
  <!-- Light freckles -->
  <g fill="#a06040" opacity="0.7">
    <circle cx="158" cy="270" r="0.8"/>
    <circle cx="164" cy="278" r="0.7"/>
    <circle cx="168" cy="273" r="0.7"/>
    <circle cx="155" cy="284" r="0.6"/>
    <circle cx="172" cy="280" r="0.6"/>
    <circle cx="244" cy="270" r="0.8"/>
    <circle cx="238" cy="278" r="0.7"/>
    <circle cx="234" cy="273" r="0.7"/>
    <circle cx="247" cy="284" r="0.6"/>
    <circle cx="230" cy="280" r="0.6"/>
  </g>

  <!-- ===== NOSE (slim, refined) ===== -->
  <path d="M 200 250 Q 196 280, 195 292 Q 200 297, 205 292 Q 204 280, 200 250" fill="none" stroke="#c08868" stroke-width="1.2"/>
  <ellipse cx="196" cy="292" rx="2.5" ry="1.4" fill="#9a6840" opacity="0.55"/>
  <ellipse cx="204" cy="292" rx="2.5" ry="1.4" fill="#9a6840" opacity="0.55"/>
  <ellipse cx="200" cy="288" rx="6" ry="2" fill="#fdebd0" opacity="0.7"/>
  <!-- Nose bridge highlight -->
  <path d="M 200 240 L 200 285" stroke="#fdebd0" stroke-width="1.2" opacity="0.45"/>

  <!-- ===== MOUTH (peach-coral lips, soft expression) ===== -->
  <!-- Upper lip with cupid's bow -->
  <path d="M 178 308 Q 186 304, 192 307 Q 196 304, 200 307 Q 204 304, 208 307 Q 214 304, 222 308 Q 215 313, 200 312 Q 185 313, 178 308 Z" fill="url(#lipUpper)"/>
  <!-- Lower lip (fuller) -->
  <path d="M 180 313 Q 200 322, 220 313 Q 215 320, 200 322 Q 185 320, 180 313 Z" fill="url(#lipLower)"/>
  <!-- Lip highlight -->
  <ellipse cx="200" cy="316" rx="9" ry="1.6" fill="#ffc8b0" opacity="0.75"/>
  <!-- Lip line -->
  <path d="M 184 311 Q 200 314, 216 311" stroke="#7a2818" stroke-width="0.7" fill="none"/>
  <!-- Cupid's bow shadow -->
  <path d="M 196 305 L 200 308 L 204 305" stroke="#a04030" stroke-width="0.4" fill="none" opacity="0.7"/>

  <!-- ===== POLICE CAP (peaked) ===== -->
  <!-- Cap base ellipse -->
  <ellipse cx="200" cy="142" rx="118" ry="24" fill="#0a1530"/>
  <!-- Cap crown -->
  <path d="M 86 142 Q 86 45, 200 35 Q 314 45, 314 142 Z" fill="url(#cap)"/>
  <!-- Cap top dome highlight -->
  <ellipse cx="200" cy="55" rx="108" ry="22" fill="#1a2545" opacity="0.7"/>
  <ellipse cx="195" cy="48" rx="60" ry="10" fill="#2a3555" opacity="0.5"/>
  <!-- Cap band (darker) -->
  <rect x="84" y="136" width="232" height="14" fill="#000510"/>
  <!-- Cap visor -->
  <path d="M 84 150 Q 100 168, 200 174 Q 300 168, 316 150 Q 200 156, 84 150 Z" fill="#000510"/>
  <ellipse cx="200" cy="166" rx="108" ry="6" fill="#0a0a1a"/>
  <!-- Visor reflection -->
  <path d="M 105 156 Q 200 162, 295 156" stroke="#2a3a5a" stroke-width="1.2" fill="none" opacity="0.65"/>
  <!-- Gold trim above band -->
  <rect x="88" y="132" width="224" height="3" fill="#daa520"/>

  <!-- ===== CAP BADGE (large gold star) ===== -->
  <ellipse cx="200" cy="92" rx="36" ry="42" fill="url(#gold)" stroke="#5a3a00" stroke-width="2"/>
  <ellipse cx="200" cy="92" rx="31" ry="37" fill="none" stroke="#7a5a10" stroke-width="0.8"/>
  <text x="200" y="88" text-anchor="middle" font-family="Arial, sans-serif" font-size="10" font-weight="900" fill="#3a2810">POLICE</text>
  <text x="200" y="112" text-anchor="middle" font-size="24" font-weight="900" fill="#3a2810">★</text>
  <text x="200" y="124" text-anchor="middle" font-family="Arial, sans-serif" font-size="6" font-weight="700" fill="#3a2810">DEPARTMENT</text>
  <!-- Badge highlights -->
  <ellipse cx="188" cy="80" rx="11" ry="5" fill="#fff5c0" opacity="0.7"/>
  <ellipse cx="210" cy="78" rx="6" ry="3" fill="#fff5c0" opacity="0.5"/>

  <!-- Cap side buttons -->
  <circle cx="105" cy="142" r="3.5" fill="url(#gold)" stroke="#5a3a00" stroke-width="0.6"/>
  <circle cx="295" cy="142" r="3.5" fill="url(#gold)" stroke="#5a3a00" stroke-width="0.6"/>
  <ellipse cx="104" cy="140" rx="1" ry="0.6" fill="#fff5c0"/>
  <ellipse cx="294" cy="140" rx="1" ry="0.6" fill="#fff5c0"/>
</svg>
