<svg xmlns="http://www.w3.org/2000/svg" viewBox="0 0 400 520" preserveAspectRatio="xMidYMid meet">
  <defs>
    <!-- Background: police station interior -->
    <radialGradient id="bg" cx="50%" cy="38%" r="80%">
      <stop offset="0%" stop-color="#4a584a"/>
      <stop offset="55%" stop-color="#2a3838"/>
      <stop offset="100%" stop-color="#0e1818"/>
    </radialGradient>
    <linearGradient id="signGrad" x1="0" y1="0" x2="0" y2="1">
      <stop offset="0%" stop-color="#e0ddd2"/>
      <stop offset="100%" stop-color="#a8a59a"/>
    </linearGradient>
    <radialGradient id="skin" cx="50%" cy="35%" r="60%">
      <stop offset="0%" stop-color="#fbe6cb"/>
      <stop offset="65%" stop-color="#ebcfa9"/>
      <stop offset="100%" stop-color="#b8896a"/>
    </radialGradient>
    <linearGradient id="hair" x1="0" y1="0" x2="0" y2="1">
      <stop offset="0%" stop-color="#4a2a18"/>
      <stop offset="40%" stop-color="#3a1f10"/>
      <stop offset="100%" stop-color="#1a0e05"/>
    </linearGradient>
    <radialGradient id="hairShine" cx="50%" cy="20%" r="50%">
      <stop offset="0%" stop-color="#8a5028" stop-opacity="0.85"/>
      <stop offset="100%" stop-color="#4a2a18" stop-opacity="0"/>
    </radialGradient>
    <linearGradient id="uniform" x1="0" y1="0" x2="0" y2="1">
      <stop offset="0%" stop-color="#2c3e60"/>
      <stop offset="100%" stop-color="#0c1a3a"/>
    </linearGradient>
    <radialGradient id="cap" cx="50%" cy="40%" r="60%">
      <stop offset="0%" stop-color="#2a3450"/>
      <stop offset="100%" stop-color="#0a1530"/>
    </radialGradient>
    <radialGradient id="gold" cx="40%" cy="35%" r="60%">
      <stop offset="0%" stop-color="#ffe890"/>
      <stop offset="55%" stop-color="#daa520"/>
      <stop offset="100%" stop-color="#7a5500"/>
    </radialGradient>
    <!-- Blue eye iris with depth -->
    <radialGradient id="irisBlue" cx="50%" cy="40%" r="55%">
      <stop offset="0%" stop-color="#7ac0f0"/>
      <stop offset="50%" stop-color="#4a8acd"/>
      <stop offset="100%" stop-color="#1a3a78"/>
    </radialGradient>
    <linearGradient id="lipUpper" x1="0" y1="0" x2="0" y2="1">
      <stop offset="0%" stop-color="#d97560"/>
      <stop offset="100%" stop-color="#b85a48"/>
    </linearGradient>
    <linearGradient id="lipLower" x1="0" y1="0" x2="0" y2="1">
      <stop offset="0%" stop-color="#e08070"/>
      <stop offset="100%" stop-color="#a04838"/>
    </linearGradient>
    <linearGradient id="headset" x1="0" y1="0" x2="0" y2="1">
      <stop offset="0%" stop-color="#3a3a3a"/>
      <stop offset="100%" stop-color="#0a0a0a"/>
    </linearGradient>
  </defs>

  <!-- Background -->
  <rect width="400" height="520" fill="url(#bg)"/>
  <!-- Wall ambient -->
  <rect width="400" height="520" fill="#3a4a4a" opacity="0.25"/>
  <!-- CITY POLICE sign at top -->
  <rect x="35" y="18" width="330" height="46" fill="url(#signGrad)" stroke="#5a5a52" stroke-width="2.5"/>
  <rect x="35" y="18" width="330" height="46" fill="none" stroke="#7a7a72" stroke-width="0.6"/>
  <text x="200" y="50" text-anchor="middle" font-family="Arial Black, sans-serif" font-size="26" font-weight="900" fill="#1a1a18" letter-spacing="4">CITY POLICE</text>
  <!-- Monitors in background (blurred) -->
  <rect x="15" y="240" width="105" height="85" fill="#1a2a3a" rx="3" opacity="0.65"/>
  <rect x="20" y="245" width="95" height="70" fill="#3a5a7a" opacity="0.55"/>
  <rect x="25" y="252" width="65" height="3" fill="#8acef5" opacity="0.85"/>
  <rect x="25" y="260" width="85" height="2" fill="#5a8aaf" opacity="0.7"/>
  <rect x="25" y="268" width="55" height="2" fill="#5a8aaf" opacity="0.7"/>
  <rect x="25" y="278" width="75" height="2" fill="#5a8aaf" opacity="0.6"/>
  <rect x="25" y="288" width="40" height="2" fill="#8acef5" opacity="0.7"/>
  <rect x="280" y="240" width="105" height="85" fill="#1a2a3a" rx="3" opacity="0.65"/>
  <rect x="285" y="245" width="95" height="70" fill="#3a5a7a" opacity="0.55"/>
  <rect x="290" y="252" width="65" height="3" fill="#8acef5" opacity="0.85"/>
  <rect x="290" y="260" width="85" height="2" fill="#5a8aaf" opacity="0.7"/>
  <rect x="290" y="268" width="55" height="2" fill="#5a8aaf" opacity="0.7"/>

  <!-- Uniform jacket -->
  <path d="M 22 520 L 22 405 Q 55 375, 110 360 Q 200 345, 290 360 Q 345 375, 378 405 L 378 520 Z" fill="url(#uniform)"/>
  <path d="M 80 410 Q 110 380, 180 372 L 200 440 L 220 372 Q 290 380, 320 410" fill="none" stroke="#3a4d70" stroke-width="0.8" opacity="0.6"/>
  <!-- Epaulettes -->
  <rect x="100" y="358" width="44" height="16" fill="#1a2a4a" rx="2" stroke="#3a4d70" stroke-width="0.5"/>
  <text x="122" y="372" text-anchor="middle" font-size="13" fill="#fff5b8">★★</text>
  <rect x="256" y="358" width="44" height="16" fill="#1a2a4a" rx="2" stroke="#3a4d70" stroke-width="0.5"/>
  <text x="278" y="372" text-anchor="middle" font-size="13" fill="#fff5b8">★★</text>
  <!-- POLICE shoulder patches -->
  <ellipse cx="60" cy="430" rx="24" ry="28" fill="#0a1730" stroke="#1a2540" stroke-width="0.6"/>
  <ellipse cx="60" cy="430" rx="21" ry="25" fill="none" stroke="#daa520" stroke-width="1.5"/>
  <text x="60" y="429" text-anchor="middle" font-family="Arial, sans-serif" font-size="7" font-weight="800" fill="#daa520">POLICE</text>
  <path d="M 48 440 L 60 450 L 72 440" stroke="#daa520" stroke-width="1.2" fill="none"/>
  <ellipse cx="340" cy="430" rx="24" ry="28" fill="#0a1730" stroke="#1a2540" stroke-width="0.6"/>
  <ellipse cx="340" cy="430" rx="21" ry="25" fill="none" stroke="#daa520" stroke-width="1.5"/>
  <text x="340" y="429" text-anchor="middle" font-family="Arial, sans-serif" font-size="7" font-weight="800" fill="#daa520">POLICE</text>
  <path d="M 328 440 L 340 450 L 352 440" stroke="#daa520" stroke-width="1.2" fill="none"/>
  <!-- White collar -->
  <path d="M 152 380 L 200 440 L 248 380 L 248 396 L 200 408 L 152 396 Z" fill="#f5f5f0" stroke="#a8a8a0" stroke-width="0.5"/>
  <!-- Navy tie -->
  <path d="M 190 408 L 186 520 L 214 520 L 210 408 Z" fill="#0d1830"/>
  <path d="M 190 408 L 200 430 L 210 408 Z" fill="#1a2540"/>
  <line x1="200" y1="430" x2="200" y2="520" stroke="#0a1525" stroke-width="0.6" opacity="0.7"/>
  <!-- Chest badge -->
  <ellipse cx="272" cy="478" rx="24" ry="30" fill="url(#gold)" stroke="#5a3a00" stroke-width="1.8"/>
  <ellipse cx="272" cy="478" rx="20" ry="26" fill="none" stroke="#7a5a10" stroke-width="0.8"/>
  <text x="272" y="470" text-anchor="middle" font-family="Arial, sans-serif" font-size="8" font-weight="900" fill="#3a2810">POLICE</text>
  <text x="272" y="488" text-anchor="middle" font-size="15" font-weight="900" fill="#3a2810">★</text>
  <text x="272" y="500" text-anchor="middle" font-family="Arial, sans-serif" font-size="4" font-weight="700" fill="#3a2810">DEPARTMENT</text>
  <ellipse cx="265" cy="468" rx="6" ry="3" fill="#fff5c0" opacity="0.7"/>
  <!-- Buttons -->
  <circle cx="200" cy="450" r="4" fill="url(#gold)" stroke="#5a3a00" stroke-width="0.6"/>
  <circle cx="200" cy="468" r="4" fill="url(#gold)" stroke="#5a3a00" stroke-width="0.6"/>
  <circle cx="200" cy="486" r="4" fill="url(#gold)" stroke="#5a3a00" stroke-width="0.6"/>
  <circle cx="200" cy="504" r="4" fill="url(#gold)" stroke="#5a3a00" stroke-width="0.6"/>
  <ellipse cx="198" cy="448" rx="1.5" ry="1" fill="#fff5c0" opacity="0.8"/>
  <ellipse cx="198" cy="466" rx="1.5" ry="1" fill="#fff5c0" opacity="0.8"/>
  <ellipse cx="198" cy="484" rx="1.5" ry="1" fill="#fff5c0" opacity="0.8"/>
  <ellipse cx="198" cy="502" rx="1.5" ry="1" fill="#fff5c0" opacity="0.8"/>
  <rect x="140" y="445" width="40" height="6" fill="none" stroke="#1a2540" stroke-width="0.8" opacity="0.6"/>

  <!-- ===== LEFT BRAID (viewer's left) ===== -->
  <!-- Green hair tie top -->
  <rect x="95" y="158" width="26" height="10" fill="#4a9d4a" stroke="#1a4a10" stroke-width="1" rx="2"/>
  <ellipse cx="108" cy="158" rx="10" ry="2" fill="#7adc7a" opacity="0.6"/>
  <!-- Braid segments (overlapping ellipses for woven texture) -->
  <g>
    <ellipse cx="108" cy="195" rx="22" ry="22" fill="url(#hair)"/>
    <path d="M 94 195 Q 108 188, 122 195" stroke="#1a0e05" stroke-width="1.8" fill="none" opacity="0.8"/>
    <path d="M 94 195 Q 108 202, 122 195" stroke="#3a1f10" stroke-width="0.8" fill="none" opacity="0.6"/>
    <ellipse cx="108" cy="232" rx="22" ry="22" fill="url(#hair)"/>
    <path d="M 94 232 Q 108 225, 122 232" stroke="#1a0e05" stroke-width="1.8" fill="none" opacity="0.8"/>
    <path d="M 94 232 Q 108 239, 122 232" stroke="#3a1f10" stroke-width="0.8" fill="none" opacity="0.6"/>
    <ellipse cx="108" cy="269" rx="21" ry="22" fill="url(#hair)"/>
    <path d="M 94 269 Q 108 262, 122 269" stroke="#1a0e05" stroke-width="1.8" fill="none" opacity="0.8"/>
    <path d="M 94 269 Q 108 276, 122 269" stroke="#3a1f10" stroke-width="0.8" fill="none" opacity="0.6"/>
    <ellipse cx="108" cy="306" rx="20" ry="22" fill="url(#hair)"/>
    <path d="M 94 306 Q 108 299, 122 306" stroke="#1a0e05" stroke-width="1.8" fill="none" opacity="0.8"/>
    <path d="M 94 306 Q 108 313, 122 306" stroke="#3a1f10" stroke-width="0.8" fill="none" opacity="0.6"/>
    <ellipse cx="108" cy="343" rx="19" ry="22" fill="url(#hair)"/>
    <path d="M 94 343 Q 108 336, 122 343" stroke="#1a0e05" stroke-width="1.8" fill="none" opacity="0.8"/>
    <path d="M 94 343 Q 108 350, 122 343" stroke="#3a1f10" stroke-width="0.8" fill="none" opacity="0.6"/>
    <ellipse cx="108" cy="378" rx="17" ry="20" fill="url(#hair)"/>
    <ellipse cx="108" cy="410" rx="14" ry="17" fill="url(#hair)"/>
  </g>
  <!-- Braid highlight (vertical sheen) -->
  <path d="M 99 175 Q 100 290, 99 415" stroke="#7a4a28" stroke-width="2" fill="none" opacity="0.5"/>
  <!-- Green hair tie bottom -->
  <rect x="95" y="424" width="26" height="10" fill="#4a9d4a" stroke="#1a4a10" stroke-width="1" rx="2"/>
  <ellipse cx="108" cy="424" rx="10" ry="2" fill="#7adc7a" opacity="0.6"/>
  <!-- Braid wisp -->
  <path d="M 102 436 L 98 452 M 108 436 L 108 454 M 114 436 L 118 452" stroke="#3a1f10" stroke-width="1.8" stroke-linecap="round"/>

  <!-- ===== RIGHT BRAID ===== -->
  <rect x="279" y="158" width="26" height="10" fill="#4a9d4a" stroke="#1a4a10" stroke-width="1" rx="2"/>
  <ellipse cx="292" cy="158" rx="10" ry="2" fill="#7adc7a" opacity="0.6"/>
  <g>
    <ellipse cx="292" cy="195" rx="22" ry="22" fill="url(#hair)"/>
    <path d="M 278 195 Q 292 188, 306 195" stroke="#1a0e05" stroke-width="1.8" fill="none" opacity="0.8"/>
    <path d="M 278 195 Q 292 202, 306 195" stroke="#3a1f10" stroke-width="0.8" fill="none" opacity="0.6"/>
    <ellipse cx="292" cy="232" rx="22" ry="22" fill="url(#hair)"/>
    <path d="M 278 232 Q 292 225, 306 232" stroke="#1a0e05" stroke-width="1.8" fill="none" opacity="0.8"/>
    <path d="M 278 232 Q 292 239, 306 232" stroke="#3a1f10" stroke-width="0.8" fill="none" opacity="0.6"/>
    <ellipse cx="292" cy="269" rx="21" ry="22" fill="url(#hair)"/>
    <path d="M 278 269 Q 292 262, 306 269" stroke="#1a0e05" stroke-width="1.8" fill="none" opacity="0.8"/>
    <path d="M 278 269 Q 292 276, 306 269" stroke="#3a1f10" stroke-width="0.8" fill="none" opacity="0.6"/>
    <ellipse cx="292" cy="306" rx="20" ry="22" fill="url(#hair)"/>
    <path d="M 278 306 Q 292 299, 306 306" stroke="#1a0e05" stroke-width="1.8" fill="none" opacity="0.8"/>
    <path d="M 278 306 Q 292 313, 306 306" stroke="#3a1f10" stroke-width="0.8" fill="none" opacity="0.6"/>
    <ellipse cx="292" cy="343" rx="19" ry="22" fill="url(#hair)"/>
    <path d="M 278 343 Q 292 336, 306 343" stroke="#1a0e05" stroke-width="1.8" fill="none" opacity="0.8"/>
    <path d="M 278 343 Q 292 350, 306 343" stroke="#3a1f10" stroke-width="0.8" fill="none" opacity="0.6"/>
    <ellipse cx="292" cy="378" rx="17" ry="20" fill="url(#hair)"/>
    <ellipse cx="292" cy="410" rx="14" ry="17" fill="url(#hair)"/>
  </g>
  <path d="M 301 175 Q 300 290, 301 415" stroke="#7a4a28" stroke-width="2" fill="none" opacity="0.5"/>
  <rect x="279" y="424" width="26" height="10" fill="#4a9d4a" stroke="#1a4a10" stroke-width="1" rx="2"/>
  <ellipse cx="292" cy="424" rx="10" ry="2" fill="#7adc7a" opacity="0.6"/>
  <path d="M 286 436 L 282 452 M 292 436 L 292 454 M 298 436 L 302 452" stroke="#3a1f10" stroke-width="1.8" stroke-linecap="round"/>

  <!-- NECK -->
  <path d="M 173 315 L 173 365 Q 200 380, 227 365 L 227 315 Z" fill="url(#skin)"/>
  <ellipse cx="200" cy="328" rx="24" ry="6" fill="#b88865" opacity="0.4"/>

  <!-- FACE -->
  <ellipse cx="200" cy="238" rx="76" ry="98" fill="url(#skin)"/>
  <path d="M 130 240 Q 138 295, 162 322 Q 145 310, 130 282 Z" fill="#cea076" opacity="0.4"/>
  <path d="M 270 240 Q 262 295, 238 322 Q 255 310, 270 282 Z" fill="#cea076" opacity="0.4"/>
  <ellipse cx="200" cy="195" rx="40" ry="14" fill="#fdebd0" opacity="0.5"/>
  <ellipse cx="200" cy="320" rx="22" ry="6" fill="#fdebd0" opacity="0.4"/>

  <!-- TOP HAIR + center bangs -->
  <path d="M 116 198 Q 95 95, 200 70 Q 305 95, 284 198 L 290 230 Q 275 130, 200 105 Q 125 130, 110 230 Z" fill="url(#hair)"/>
  <!-- Side wisps to braids -->
  <path d="M 120 195 Q 105 175, 96 168 L 118 158 Q 128 178, 130 195 Z" fill="url(#hair)"/>
  <path d="M 280 195 Q 295 175, 304 168 L 282 158 Q 272 178, 270 195 Z" fill="url(#hair)"/>
  <!-- Center bangs with feathered tips -->
  <path d="M 130 175 Q 168 168, 200 172 Q 234 168, 274 178 Q 260 205, 200 205 Q 145 205, 130 198 Z" fill="url(#hair)"/>
  <!-- Bang strand texture (multiple thin strands) -->
  <g stroke="#1a0e05" stroke-width="1.2" fill="none" opacity="0.7">
    <path d="M 148 175 L 150 205"/>
    <path d="M 162 172 L 162 205"/>
    <path d="M 176 172 L 176 205"/>
    <path d="M 190 172 L 190 205"/>
    <path d="M 200 172 L 200 205"/>
    <path d="M 210 172 L 210 205"/>
    <path d="M 224 173 L 224 205"/>
    <path d="M 238 175 L 238 205"/>
    <path d="M 252 178 L 252 205"/>
  </g>
  <!-- Hair highlights -->
  <ellipse cx="170" cy="125" rx="38" ry="22" fill="url(#hairShine)"/>
  <ellipse cx="230" cy="135" rx="32" ry="18" fill="url(#hairShine)" opacity="0.7"/>

  <!-- EYEBROWS (dark, defined arches) -->
  <path d="M 152 216 Q 168 207, 190 216 Q 188 219, 168 212 Q 154 219, 152 216 Z" fill="#22130a"/>
  <path d="M 210 216 Q 232 207, 248 216 Q 246 219, 232 212 Q 212 219, 210 216 Z" fill="#22130a"/>
  <g stroke="#0a0a05" stroke-width="0.7">
    <path d="M 156 215 L 158 213 M 162 214 L 164 212 M 168 212 L 170 210 M 175 212 L 177 210 M 182 214 L 184 212"/>
    <path d="M 213 216 L 215 214 M 218 214 L 220 212 M 224 212 L 226 210 M 230 212 L 232 210 M 236 214 L 238 212 M 242 214 L 244 212"/>
  </g>

  <!-- ===== BLUE EYES (large, expressive, very long lashes) ===== -->
  <!-- Eye whites (slightly larger for anime-stylized look) -->
  <ellipse cx="170" cy="248" rx="15" ry="12" fill="#fffaf2"/>
  <ellipse cx="230" cy="248" rx="15" ry="12" fill="#fffaf2"/>
  <!-- Inner corner shadow -->
  <path d="M 156 250 Q 161 254, 168 254" stroke="#d0a888" stroke-width="0.8" fill="none" opacity="0.7"/>
  <path d="M 232 254 Q 239 254, 244 250" stroke="#d0a888" stroke-width="0.8" fill="none" opacity="0.7"/>
  <!-- Iris BLUE -->
  <circle cx="170" cy="248" r="10.5" fill="url(#irisBlue)"/>
  <circle cx="230" cy="248" r="10.5" fill="url(#irisBlue)"/>
  <!-- Iris outer ring (darker) -->
  <circle cx="170" cy="248" r="10.5" fill="none" stroke="#0e2a55" stroke-width="1.2"/>
  <circle cx="230" cy="248" r="10.5" fill="none" stroke="#0e2a55" stroke-width="1.2"/>
  <!-- Iris radial detail -->
  <g opacity="0.55">
    <line x1="170" y1="238" x2="170" y2="258" stroke="#6acbf5" stroke-width="0.6"/>
    <line x1="160" y1="248" x2="180" y2="248" stroke="#6acbf5" stroke-width="0.6"/>
    <line x1="163" y1="241" x2="177" y2="255" stroke="#6acbf5" stroke-width="0.5"/>
    <line x1="177" y1="241" x2="163" y2="255" stroke="#6acbf5" stroke-width="0.5"/>
    <line x1="230" y1="238" x2="230" y2="258" stroke="#6acbf5" stroke-width="0.6"/>
    <line x1="220" y1="248" x2="240" y2="248" stroke="#6acbf5" stroke-width="0.6"/>
    <line x1="223" y1="241" x2="237" y2="255" stroke="#6acbf5" stroke-width="0.5"/>
    <line x1="237" y1="241" x2="223" y2="255" stroke="#6acbf5" stroke-width="0.5"/>
  </g>
  <!-- Pupils -->
  <circle cx="170" cy="248" r="4.5" fill="#08101e"/>
  <circle cx="230" cy="248" r="4.5" fill="#08101e"/>
  <!-- Bright catchlights -->
  <ellipse cx="166" cy="243" rx="3.8" ry="3" fill="#fff"/>
  <ellipse cx="226" cy="243" rx="3.8" ry="3" fill="#fff"/>
  <circle cx="174" cy="252" r="1.6" fill="#fff" opacity="0.9"/>
  <circle cx="234" cy="252" r="1.6" fill="#fff" opacity="0.9"/>
  <!-- Upper lash line (very thick) -->
  <path d="M 154 240 Q 170 230, 186 239 L 190 237 Q 170 227, 150 240 Z" fill="#0a0500"/>
  <path d="M 214 239 Q 230 230, 246 240 L 249 237 Q 230 227, 210 240 Z" fill="#0a0500"/>
  <!-- Long curling individual upper lashes -->
  <g stroke="#0a0500" stroke-width="1.4" stroke-linecap="round">
    <line x1="156" y1="237" x2="153" y2="229"/>
    <line x1="161" y1="234" x2="159" y2="225"/>
    <line x1="166" y1="232" x2="166" y2="223"/>
    <line x1="170" y1="231" x2="170" y2="222"/>
    <line x1="174" y1="232" x2="175" y2="223"/>
    <line x1="179" y1="234" x2="181" y2="225"/>
    <line x1="184" y1="237" x2="188" y2="229"/>
    <line x1="216" y1="237" x2="213" y2="229"/>
    <line x1="221" y1="234" x2="219" y2="225"/>
    <line x1="226" y1="232" x2="226" y2="223"/>
    <line x1="230" y1="231" x2="230" y2="222"/>
    <line x1="234" y1="232" x2="235" y2="223"/>
    <line x1="239" y1="234" x2="241" y2="225"/>
    <line x1="244" y1="237" x2="248" y2="229"/>
  </g>
  <!-- Lower lash line -->
  <path d="M 158 256 Q 170 260, 182 256" stroke="#22130a" stroke-width="0.7" fill="none"/>
  <path d="M 218 256 Q 230 260, 242 256" stroke="#22130a" stroke-width="0.7" fill="none"/>
  <g stroke="#22130a" stroke-width="0.7" stroke-linecap="round" opacity="0.8">
    <line x1="164" y1="258" x2="164" y2="261"/>
    <line x1="170" y1="259" x2="170" y2="262"/>
    <line x1="176" y1="258" x2="176" y2="261"/>
    <line x1="224" y1="258" x2="224" y2="261"/>
    <line x1="230" y1="259" x2="230" y2="262"/>
    <line x1="236" y1="258" x2="236" y2="261"/>
  </g>

  <!-- CHEEKS (rosy + freckles) -->
  <ellipse cx="148" cy="278" rx="22" ry="12" fill="#ff8870" opacity="0.42"/>
  <ellipse cx="252" cy="278" rx="22" ry="12" fill="#ff8870" opacity="0.42"/>
  <g fill="#a06040" opacity="0.85">
    <circle cx="158" cy="270" r="0.9"/>
    <circle cx="163" cy="278" r="0.9"/>
    <circle cx="168" cy="273" r="0.8"/>
    <circle cx="155" cy="284" r="0.7"/>
    <circle cx="170" cy="282" r="0.7"/>
    <circle cx="244" cy="270" r="0.9"/>
    <circle cx="239" cy="278" r="0.9"/>
    <circle cx="234" cy="273" r="0.8"/>
    <circle cx="247" cy="284" r="0.7"/>
    <circle cx="230" cy="282" r="0.7"/>
  </g>

  <!-- NOSE -->
  <path d="M 200 252 Q 196 282, 195 292 Q 200 297, 205 292 Q 204 282, 200 252" fill="none" stroke="#c08868" stroke-width="1.2"/>
  <ellipse cx="196" cy="292" rx="2.5" ry="1.4" fill="#9a6840" opacity="0.55"/>
  <ellipse cx="204" cy="292" rx="2.5" ry="1.4" fill="#9a6840" opacity="0.55"/>
  <ellipse cx="200" cy="288" rx="6" ry="2" fill="#fdebd0" opacity="0.7"/>
  <path d="M 200 240 L 200 285" stroke="#fdebd0" stroke-width="1.2" opacity="0.45"/>

  <!-- MOUTH (subtle smile) -->
  <path d="M 178 308 Q 186 304, 192 307 Q 196 304, 200 307 Q 204 304, 208 307 Q 214 304, 222 308 Q 215 313, 200 312 Q 185 313, 178 308 Z" fill="url(#lipUpper)"/>
  <path d="M 180 313 Q 200 322, 220 313 Q 215 320, 200 322 Q 185 320, 180 313 Z" fill="url(#lipLower)"/>
  <ellipse cx="200" cy="316" rx="9" ry="1.6" fill="#ffc8b0" opacity="0.75"/>
  <path d="M 184 311 Q 200 314, 216 311" stroke="#7a2818" stroke-width="0.7" fill="none"/>
  <!-- Slight smile lift -->
  <path d="M 178 311 Q 182 315, 188 312" stroke="#7a2818" stroke-width="0.6" fill="none"/>
  <path d="M 222 311 Q 218 315, 212 312" stroke="#7a2818" stroke-width="0.6" fill="none"/>

  <!-- ===== HEADSET (right ear earpiece + mic boom) ===== -->
  <!-- Headset band over cap -->
  <path d="M 282 230 Q 270 172, 200 162 Q 130 172, 118 230" fill="none" stroke="#0a0a0a" stroke-width="4" stroke-linecap="round"/>
  <path d="M 282 230 Q 270 176, 200 166" fill="none" stroke="#3a3a3a" stroke-width="1.2" opacity="0.8"/>
  <!-- Right earpiece -->
  <ellipse cx="282" cy="254" rx="16" ry="20" fill="url(#headset)" stroke="#0a0a0a" stroke-width="1"/>
  <ellipse cx="282" cy="254" rx="11" ry="15" fill="#0a0a0a"/>
  <ellipse cx="282" cy="254" rx="7" ry="10" fill="#3a3a3a"/>
  <circle cx="282" cy="254" r="3.5" fill="#0a0a0a"/>
  <!-- Tiny green LED -->
  <circle cx="282" cy="240" r="1.8" fill="#5af55a"/>
  <circle cx="282" cy="240" r="3.5" fill="#5af55a" opacity="0.5"/>
  <!-- Mic boom arm (curved) -->
  <path d="M 280 270 Q 260 295, 240 308 Q 235 312, 232 316" stroke="#0a0a0a" stroke-width="3.5" fill="none" stroke-linecap="round"/>
  <path d="M 280 270 Q 260 295, 240 308" stroke="#5a5a5a" stroke-width="0.8" fill="none" opacity="0.8"/>
  <!-- Mic head (foam ball) -->
  <ellipse cx="228" cy="320" rx="8" ry="7" fill="#2a2a2a"/>
  <ellipse cx="228" cy="320" rx="7" ry="6" fill="#0a0a0a"/>
  <g fill="#5a5a5a" opacity="0.7">
    <circle cx="226" cy="318" r="0.7"/>
    <circle cx="230" cy="319" r="0.7"/>
    <circle cx="228" cy="322" r="0.7"/>
    <circle cx="225" cy="321" r="0.6"/>
    <circle cx="231" cy="317" r="0.6"/>
  </g>

  <!-- POLICE CAP -->
  <ellipse cx="200" cy="142" rx="118" ry="24" fill="#0a1530"/>
  <path d="M 86 142 Q 86 45, 200 35 Q 314 45, 314 142 Z" fill="url(#cap)"/>
  <ellipse cx="200" cy="55" rx="108" ry="22" fill="#1a2545" opacity="0.7"/>
  <ellipse cx="195" cy="48" rx="60" ry="10" fill="#2a3555" opacity="0.5"/>
  <rect x="84" y="136" width="232" height="14" fill="#000510"/>
  <path d="M 84 150 Q 100 168, 200 174 Q 300 168, 316 150 Q 200 156, 84 150 Z" fill="#000510"/>
  <ellipse cx="200" cy="166" rx="108" ry="6" fill="#0a0a1a"/>
  <path d="M 105 156 Q 200 162, 295 156" stroke="#2a3a5a" stroke-width="1.2" fill="none" opacity="0.65"/>
  <rect x="88" y="132" width="224" height="3" fill="#daa520"/>
  <!-- Cap badge -->
  <ellipse cx="200" cy="92" rx="36" ry="42" fill="url(#gold)" stroke="#5a3a00" stroke-width="2"/>
  <ellipse cx="200" cy="92" rx="31" ry="37" fill="none" stroke="#7a5a10" stroke-width="0.8"/>
  <text x="200" y="88" text-anchor="middle" font-family="Arial, sans-serif" font-size="10" font-weight="900" fill="#3a2810">POLICE</text>
  <text x="200" y="112" text-anchor="middle" font-size="24" font-weight="900" fill="#3a2810">★</text>
  <text x="200" y="124" text-anchor="middle" font-family="Arial, sans-serif" font-size="6" font-weight="700" fill="#3a2810">DEPARTMENT</text>
  <ellipse cx="188" cy="80" rx="11" ry="5" fill="#fff5c0" opacity="0.7"/>
  <ellipse cx="210" cy="78" rx="6" ry="3" fill="#fff5c0" opacity="0.5"/>
  <circle cx="105" cy="142" r="3.5" fill="url(#gold)" stroke="#5a3a00" stroke-width="0.6"/>
  <circle cx="295" cy="142" r="3.5" fill="url(#gold)" stroke="#5a3a00" stroke-width="0.6"/>
  <ellipse cx="104" cy="140" rx="1" ry="0.6" fill="#fff5c0"/>
  <ellipse cx="294" cy="140" rx="1" ry="0.6" fill="#fff5c0"/>
</svg>
