<svg xmlns="http://www.w3.org/2000/svg" viewBox="0 0 400 520" preserveAspectRatio="xMidYMid meet">
  <defs>
    <radialGradient id="bgSoyun" cx="50%" cy="35%" r="80%">
      <stop offset="0%" stop-color="#5a4a3a"/>
      <stop offset="55%" stop-color="#3a2a1f"/>
      <stop offset="100%" stop-color="#1a0e0a"/>
    </radialGradient>
    <linearGradient id="curtainL" x1="0" y1="0" x2="1" y2="0">
      <stop offset="0%" stop-color="#3a2a1a"/>
      <stop offset="50%" stop-color="#8a6a3a"/>
      <stop offset="100%" stop-color="#a08050"/>
    </linearGradient>
    <linearGradient id="curtainR" x1="0" y1="0" x2="1" y2="0">
      <stop offset="0%" stop-color="#a08050"/>
      <stop offset="50%" stop-color="#8a6a3a"/>
      <stop offset="100%" stop-color="#3a2a1a"/>
    </linearGradient>
    <radialGradient id="window" cx="50%" cy="35%" r="70%">
      <stop offset="0%" stop-color="#fff8e0"/>
      <stop offset="60%" stop-color="#e8d8a8"/>
      <stop offset="100%" stop-color="#8a7050"/>
    </radialGradient>
    <radialGradient id="skinSoyun" cx="50%" cy="35%" r="65%">
      <stop offset="0%" stop-color="#fae4c8"/>
      <stop offset="70%" stop-color="#ecceac"/>
      <stop offset="100%" stop-color="#c89878"/>
    </radialGradient>
    <linearGradient id="hairSoyun" x1="0" y1="0" x2="0" y2="1">
      <stop offset="0%" stop-color="#5a3a1f"/>
      <stop offset="50%" stop-color="#4a2a18"/>
      <stop offset="100%" stop-color="#2a1a0a"/>
    </linearGradient>
    <linearGradient id="hairHi" x1="0" y1="0" x2="0" y2="1">
      <stop offset="0%" stop-color="#9a6a3a" stop-opacity="0.85"/>
      <stop offset="100%" stop-color="#5a3a1f" stop-opacity="0"/>
    </linearGradient>
    <linearGradient id="uniformSoyun" x1="0" y1="0" x2="0" y2="1">
      <stop offset="0%" stop-color="#2a3a5a"/>
      <stop offset="100%" stop-color="#0a1a3a"/>
    </linearGradient>
    <radialGradient id="capSoyun" cx="50%" cy="40%" r="60%">
      <stop offset="0%" stop-color="#2a3050"/>
      <stop offset="100%" stop-color="#0a1530"/>
    </radialGradient>
    <radialGradient id="goldBadge" cx="40%" cy="35%" r="60%">
      <stop offset="0%" stop-color="#ffe080"/>
      <stop offset="60%" stop-color="#d4a000"/>
      <stop offset="100%" stop-color="#7a5000"/>
    </radialGradient>
  </defs>

  <!-- BG: warm interior with arched window -->
  <rect width="400" height="520" fill="url(#bgSoyun)"/>
  <!-- Window arch behind head (soft glow) -->
  <ellipse cx="200" cy="180" rx="170" ry="200" fill="url(#window)" opacity="0.85"/>
  <path d="M 90 220 Q 90 80, 200 80 Q 310 80, 310 220 L 310 380 L 90 380 Z" fill="none" stroke="#5a4030" stroke-width="3" opacity="0.5"/>
  <line x1="200" y1="80" x2="200" y2="380" stroke="#5a4030" stroke-width="2.5" opacity="0.4"/>
  <line x1="90" y1="220" x2="310" y2="220" stroke="#5a4030" stroke-width="2.5" opacity="0.4"/>

  <!-- Curtains -->
  <path d="M 0 0 L 0 520 L 80 520 Q 110 400, 95 200 Q 90 80, 70 0 Z" fill="url(#curtainL)"/>
  <path d="M 400 0 L 400 520 L 320 520 Q 290 400, 305 200 Q 310 80, 330 0 Z" fill="url(#curtainR)"/>
  <!-- Curtain folds -->
  <path d="M 30 30 Q 25 250, 40 510" stroke="#3a2a1a" stroke-width="1.5" fill="none" opacity="0.6"/>
  <path d="M 60 50 Q 55 260, 70 510" stroke="#3a2a1a" stroke-width="1.5" fill="none" opacity="0.5"/>
  <path d="M 340 50 Q 345 260, 330 510" stroke="#3a2a1a" stroke-width="1.5" fill="none" opacity="0.5"/>
  <path d="M 370 30 Q 375 250, 360 510" stroke="#3a2a1a" stroke-width="1.5" fill="none" opacity="0.6"/>

  <!-- Uniform shoulders -->
  <path d="M 30 520 L 30 410 Q 60 380, 110 365 Q 200 350, 290 365 Q 340 380, 370 410 L 370 520 Z" fill="url(#uniformSoyun)"/>
  <!-- Shoulder POLICE patches (oval) -->
  <ellipse cx="65" cy="430" rx="22" ry="26" fill="#0a1a35"/>
  <ellipse cx="65" cy="430" rx="20" ry="24" fill="none" stroke="#d4a000" stroke-width="1.2"/>
  <text x="65" y="430" text-anchor="middle" font-family="Inter, sans-serif" font-size="7" font-weight="700" fill="#d4a000">POLICE</text>
  <path d="M 55 442 L 65 448 L 75 442" stroke="#d4a000" stroke-width="1" fill="none"/>
  <ellipse cx="335" cy="430" rx="22" ry="26" fill="#0a1a35"/>
  <ellipse cx="335" cy="430" rx="20" ry="24" fill="none" stroke="#d4a000" stroke-width="1.2"/>
  <text x="335" y="430" text-anchor="middle" font-family="Inter, sans-serif" font-size="7" font-weight="700" fill="#d4a000">POLICE</text>
  <path d="M 325 442 L 335 448 L 345 442" stroke="#d4a000" stroke-width="1" fill="none"/>
  <!-- Epaulettes (gold stars on shoulders) -->
  <rect x="105" y="365" width="40" height="14" fill="#1a2a4a" rx="2"/>
  <text x="125" y="377" text-anchor="middle" font-size="11" fill="#d4a000">★★</text>
  <rect x="255" y="365" width="40" height="14" fill="#1a2a4a" rx="2"/>
  <text x="275" y="377" text-anchor="middle" font-size="11" fill="#d4a000">★★</text>
  <!-- White collar shirt -->
  <path d="M 155 385 L 200 440 L 245 385 L 245 400 L 200 410 L 155 400 Z" fill="#f0f0f0" stroke="#a0a0a0" stroke-width="0.5"/>
  <!-- Navy tie -->
  <path d="M 192 410 L 188 520 L 212 520 L 208 410 Z" fill="#0d1b3a"/>
  <path d="M 192 410 L 200 430 L 208 410 Z" fill="#1a2a4a"/>
  <!-- Chest badge (gold star) -->
  <ellipse cx="270" cy="475" rx="22" ry="28" fill="url(#goldBadge)" stroke="#5a3a00" stroke-width="1.5"/>
  <text x="270" y="468" text-anchor="middle" font-size="9" font-weight="800" fill="#5a3a00">POLICE</text>
  <text x="270" y="488" text-anchor="middle" font-size="14" font-weight="900" fill="#5a3a00">★</text>
  <!-- Gold buttons row -->
  <circle cx="200" cy="455" r="3.5" fill="url(#goldBadge)" stroke="#5a3a00" stroke-width="0.5"/>
  <circle cx="200" cy="475" r="3.5" fill="url(#goldBadge)" stroke="#5a3a00" stroke-width="0.5"/>
  <circle cx="200" cy="495" r="3.5" fill="url(#goldBadge)" stroke="#5a3a00" stroke-width="0.5"/>

  <!-- BACK hair flowing past shoulders -->
  <path d="M 105 200 Q 80 320, 70 420 L 100 460 L 120 320 Z" fill="url(#hairSoyun)"/>
  <path d="M 295 200 Q 320 320, 330 420 L 300 460 L 280 320 Z" fill="url(#hairSoyun)"/>
  <!-- Hair strands -->
  <path d="M 100 260 Q 88 360, 80 440" stroke="#6a4a25" stroke-width="1" fill="none" opacity="0.6"/>
  <path d="M 300 260 Q 312 360, 320 440" stroke="#6a4a25" stroke-width="1" fill="none" opacity="0.6"/>

  <!-- NECK -->
  <path d="M 175 320 L 175 365 Q 200 380, 225 365 L 225 320 Z" fill="url(#skinSoyun)"/>
  <ellipse cx="200" cy="330" rx="22" ry="6" fill="#c08868" opacity="0.4"/>

  <!-- FACE (oval) -->
  <ellipse cx="200" cy="240" rx="78" ry="98" fill="url(#skinSoyun)"/>
  <!-- Face shading -->
  <path d="M 130 245 Q 140 290, 165 320 Q 145 310, 130 285 Z" fill="#d8a880" opacity="0.4"/>
  <path d="M 270 245 Q 260 290, 235 320 Q 255 310, 270 285 Z" fill="#d8a880" opacity="0.35"/>
  <!-- Jawline highlight -->
  <path d="M 165 318 Q 200 332, 235 318" stroke="#f5d8b5" stroke-width="1.5" fill="none" opacity="0.6"/>

  <!-- HAIR (long brown, side-swept bangs) -->
  <!-- Back of head -->
  <path d="M 120 195 Q 100 100, 200 75 Q 300 100, 280 195 L 290 230 Q 270 130, 200 110 Q 130 130, 110 230 Z" fill="url(#hairSoyun)"/>
  <!-- Top hair volume -->
  <path d="M 125 175 Q 145 95, 200 78 Q 255 95, 275 175 L 275 200 Q 200 130, 125 200 Z" fill="url(#hairSoyun)"/>
  <!-- Side hair left (over ear, down past chin) -->
  <path d="M 122 195 Q 110 250, 115 320 L 145 330 Q 140 250, 142 200 Z" fill="url(#hairSoyun)"/>
  <!-- Side hair right (over ear) -->
  <path d="M 278 195 Q 290 250, 285 320 L 255 330 Q 260 250, 258 200 Z" fill="url(#hairSoyun)"/>
  <!-- BANGS (side-swept across forehead) -->
  <path d="M 132 175 Q 165 165, 200 175 Q 245 170, 275 178 Q 260 200, 200 200 Q 145 200, 132 195 Z" fill="url(#hairSoyun)"/>
  <!-- Bang strands sweeping right -->
  <path d="M 150 178 Q 200 190, 270 175 Q 240 195, 195 198 Q 165 197, 150 195 Z" fill="#3a2008"/>
  <path d="M 140 185 Q 190 200, 265 185" stroke="#2a1808" stroke-width="1.5" fill="none" opacity="0.8"/>
  <!-- Hair highlights (soft sheen on top) -->
  <ellipse cx="175" cy="125" rx="35" ry="22" fill="url(#hairHi)"/>
  <ellipse cx="230" cy="135" rx="28" ry="18" fill="url(#hairHi)" opacity="0.7"/>

  <!-- RED HAIR CLIP (right side of head, viewer's right) -->
  <rect x="248" y="155" width="22" height="9" fill="#cc1a1a" rx="2" stroke="#7a0808" stroke-width="0.8"/>
  <ellipse cx="270" cy="159" r="5" fill="#cc1a1a" stroke="#7a0808" stroke-width="0.5"/>
  <ellipse cx="255" cy="157" rx="6" ry="2" fill="#ff5050" opacity="0.6"/>

  <!-- EYEBROWS (dark brown, gently arched, full) -->
  <path d="M 155 218 Q 170 210, 188 218 L 188 222 Q 170 216, 155 222 Z" fill="#3a2010"/>
  <path d="M 212 218 Q 230 210, 245 218 L 245 222 Q 230 216, 212 222 Z" fill="#3a2010"/>

  <!-- EYES (warm brown, large, prominent) -->
  <!-- Eye whites -->
  <ellipse cx="170" cy="245" rx="13" ry="9" fill="#fff8f0"/>
  <ellipse cx="230" cy="245" rx="13" ry="9" fill="#fff8f0"/>
  <!-- Iris brown -->
  <circle cx="170" cy="246" r="8.5" fill="#7a4d28"/>
  <circle cx="230" cy="246" r="8.5" fill="#7a4d28"/>
  <!-- Iris detail rings -->
  <circle cx="170" cy="246" r="8.5" fill="none" stroke="#5a3018" stroke-width="0.8"/>
  <circle cx="230" cy="246" r="8.5" fill="none" stroke="#5a3018" stroke-width="0.8"/>
  <!-- Pupils -->
  <circle cx="170" cy="246" r="4" fill="#1a0a00"/>
  <circle cx="230" cy="246" r="4" fill="#1a0a00"/>
  <!-- Eye highlights -->
  <circle cx="167" cy="243" r="2.2" fill="#fff"/>
  <circle cx="227" cy="243" r="2.2" fill="#fff"/>
  <circle cx="173" cy="248" r="0.9" fill="#fff" opacity="0.7"/>
  <circle cx="233" cy="248" r="0.9" fill="#fff" opacity="0.7"/>
  <!-- Upper lash line (thick) -->
  <path d="M 155 240 Q 170 233, 185 240" stroke="#1a0a00" stroke-width="2.2" fill="none" stroke-linecap="round"/>
  <path d="M 215 240 Q 230 233, 245 240" stroke="#1a0a00" stroke-width="2.2" fill="none" stroke-linecap="round"/>
  <!-- Individual lashes -->
  <line x1="160" y1="238" x2="158" y2="234" stroke="#1a0a00" stroke-width="1"/>
  <line x1="167" y1="236" x2="166" y2="231" stroke="#1a0a00" stroke-width="1"/>
  <line x1="174" y1="236" x2="175" y2="231" stroke="#1a0a00" stroke-width="1"/>
  <line x1="181" y1="238" x2="183" y2="234" stroke="#1a0a00" stroke-width="1"/>
  <line x1="220" y1="238" x2="218" y2="234" stroke="#1a0a00" stroke-width="1"/>
  <line x1="227" y1="236" x2="226" y2="231" stroke="#1a0a00" stroke-width="1"/>
  <line x1="234" y1="236" x2="235" y2="231" stroke="#1a0a00" stroke-width="1"/>
  <line x1="241" y1="238" x2="243" y2="234" stroke="#1a0a00" stroke-width="1"/>
  <!-- Lower lash line (thin) -->
  <path d="M 158 252 Q 170 256, 182 252" stroke="#2a1808" stroke-width="0.7" fill="none"/>
  <path d="M 218 252 Q 230 256, 242 252" stroke="#2a1808" stroke-width="0.7" fill="none"/>

  <!-- CHEEKS (soft peachy blush) -->
  <ellipse cx="150" cy="275" rx="18" ry="10" fill="#ff9080" opacity="0.35"/>
  <ellipse cx="250" cy="275" rx="18" ry="10" fill="#ff9080" opacity="0.35"/>
  <!-- Subtle freckles -->
  <circle cx="158" cy="270" r="0.8" fill="#a06040" opacity="0.7"/>
  <circle cx="163" cy="278" r="0.8" fill="#a06040" opacity="0.7"/>
  <circle cx="167" cy="273" r="0.7" fill="#a06040" opacity="0.6"/>
  <circle cx="244" cy="270" r="0.8" fill="#a06040" opacity="0.7"/>
  <circle cx="239" cy="278" r="0.8" fill="#a06040" opacity="0.7"/>

  <!-- NOSE (soft, refined) -->
  <path d="M 200 250 Q 196 280, 195 290 Q 200 295, 205 290 Q 204 280, 200 250" fill="none" stroke="#c89878" stroke-width="1.2"/>
  <ellipse cx="196" cy="290" rx="2.5" ry="1.5" fill="#a07050" opacity="0.5"/>
  <ellipse cx="204" cy="290" rx="2.5" ry="1.5" fill="#a07050" opacity="0.5"/>
  <ellipse cx="200" cy="288" rx="6" ry="2" fill="#f5d8b5" opacity="0.6"/>

  <!-- MOUTH (coral-peach lips, slight pout) -->
  <!-- Upper lip -->
  <path d="M 178 308 Q 188 304, 200 306 Q 212 304, 222 308 Q 215 312, 200 311 Q 185 312, 178 308 Z" fill="#d97560"/>
  <!-- Lower lip (fuller) -->
  <path d="M 180 311 Q 200 320, 220 311 Q 215 318, 200 320 Q 185 318, 180 311 Z" fill="#c46050"/>
  <!-- Lip highlight -->
  <ellipse cx="200" cy="314" rx="8" ry="1.5" fill="#ffb8a0" opacity="0.7"/>
  <!-- Lip line center -->
  <path d="M 185 311 Q 200 314, 215 311" stroke="#8a3020" stroke-width="0.8" fill="none"/>

  <!-- POLICE CAP (large, prominent) -->
  <!-- Cap body -->
  <ellipse cx="200" cy="140" rx="115" ry="22" fill="#0a1530"/>
  <path d="M 90 140 Q 90 50, 200 40 Q 310 50, 310 140 Z" fill="url(#capSoyun)"/>
  <!-- Cap top dome -->
  <ellipse cx="200" cy="55" rx="105" ry="20" fill="#1a2540" opacity="0.7"/>
  <!-- Cap band -->
  <rect x="88" y="135" width="224" height="14" fill="#000510"/>
  <!-- Cap visor (front) -->
  <path d="M 88 148 Q 100 162, 200 168 Q 300 162, 312 148 Q 200 152, 88 148 Z" fill="#000510"/>
  <ellipse cx="200" cy="162" rx="105" ry="6" fill="#0a0a1a"/>
  <!-- Visor highlight -->
  <path d="M 110 154 Q 200 158, 290 154" stroke="#2a3a5a" stroke-width="1" fill="none" opacity="0.7"/>
  <!-- Gold trim above visor -->
  <rect x="92" y="132" width="216" height="3" fill="#d4a000"/>

  <!-- CAP BADGE (gold star) -->
  <ellipse cx="200" cy="95" rx="32" ry="38" fill="url(#goldBadge)" stroke="#5a3a00" stroke-width="1.5"/>
  <text x="200" y="92" text-anchor="middle" font-family="Inter, sans-serif" font-size="9" font-weight="800" fill="#5a3a00">POLICE</text>
  <text x="200" y="115" text-anchor="middle" font-size="22" font-weight="900" fill="#5a3a00">★</text>
  <!-- Badge sub-text -->
  <text x="200" y="125" text-anchor="middle" font-family="Inter, sans-serif" font-size="5" font-weight="700" fill="#5a3a00">DEPT</text>
  <!-- Badge highlights -->
  <ellipse cx="190" cy="85" rx="10" ry="5" fill="#ffe8a8" opacity="0.7"/>

  <!-- Side gold band buttons -->
  <circle cx="110" cy="140" r="3" fill="#d4a000" stroke="#5a3a00" stroke-width="0.5"/>
  <circle cx="290" cy="140" r="3" fill="#d4a000" stroke="#5a3a00" stroke-width="0.5"/>
</svg>
